<mxfile host="app.diagrams.net" modified="2020-09-22T09:31:17.218Z" agent="5.0 (Windows)" etag="ZextHGAj_yQEOxP7NS9C" version="13.7.3" type="github" pages="3">
  <diagram id="aA93bd_iw_xx4IOQZr9C" name="Page-1">
    <mxGraphModel dx="2249" dy="1960" grid="1" gridSize="10" guides="1" tooltips="1" connect="1" arrows="1" fold="1" page="1" pageScale="1" pageWidth="827" pageHeight="1169" math="0" shadow="0">
      <root>
        <mxCell id="0" />
        <mxCell id="1" parent="0" />
        <mxCell id="nrHtv3V79Zr1azBo63br-32" value="运行服务" style="points=[[0,0],[0.25,0],[0.5,0],[0.75,0],[1,0],[1,0.25],[1,0.5],[1,0.75],[1,1],[0.75,1],[0.5,1],[0.25,1],[0,1],[0,0.75],[0,0.5],[0,0.25]];outlineConnect=0;gradientColor=none;html=1;whiteSpace=wrap;fontSize=12;fontStyle=0;shape=mxgraph.aws4.group;grIcon=mxgraph.aws4.group_on_premise;fillColor=none;verticalAlign=top;align=left;spacingLeft=30;fontColor=#5A6C86;dashed=0;strokeColor=#CDA2BE;" parent="1" vertex="1">
          <mxGeometry x="-570" y="255.5" width="270" height="215" as="geometry" />
        </mxCell>
        <mxCell id="nrHtv3V79Zr1azBo63br-26" value="运行服务" style="points=[[0,0],[0.25,0],[0.5,0],[0.75,0],[1,0],[1,0.25],[1,0.5],[1,0.75],[1,1],[0.75,1],[0.5,1],[0.25,1],[0,1],[0,0.75],[0,0.5],[0,0.25]];outlineConnect=0;gradientColor=none;html=1;whiteSpace=wrap;fontSize=12;fontStyle=0;shape=mxgraph.aws4.group;grIcon=mxgraph.aws4.group_on_premise;fillColor=none;verticalAlign=top;align=left;spacingLeft=30;fontColor=#5A6C86;dashed=0;strokeColor=#CDA2BE;" parent="1" vertex="1">
          <mxGeometry x="240" y="-100" width="270" height="190" as="geometry" />
        </mxCell>
        <mxCell id="nrHtv3V79Zr1azBo63br-20" value="" style="endArrow=classic;html=1;" parent="1" source="rVWC7oh4cJsDwkScO6lr-1" target="rVWC7oh4cJsDwkScO6lr-4" edge="1">
          <mxGeometry width="50" height="50" relative="1" as="geometry">
            <mxPoint x="-80" y="620" as="sourcePoint" />
            <mxPoint x="-30" y="570" as="targetPoint" />
            <Array as="points">
              <mxPoint x="-189" y="689" />
            </Array>
          </mxGeometry>
        </mxCell>
        <mxCell id="nrHtv3V79Zr1azBo63br-21" value="远程开发" style="edgeLabel;html=1;align=center;verticalAlign=middle;resizable=0;points=[];" parent="nrHtv3V79Zr1azBo63br-20" vertex="1" connectable="0">
          <mxGeometry x="-0.2422" y="1" relative="1" as="geometry">
            <mxPoint as="offset" />
          </mxGeometry>
        </mxCell>
        <mxCell id="nrHtv3V79Zr1azBo63br-14" value="" style="endArrow=classic;html=1;" parent="1" source="rVWC7oh4cJsDwkScO6lr-1" target="rVWC7oh4cJsDwkScO6lr-3" edge="1">
          <mxGeometry width="50" height="50" relative="1" as="geometry">
            <mxPoint x="130" y="600" as="sourcePoint" />
            <mxPoint x="180" y="550" as="targetPoint" />
          </mxGeometry>
        </mxCell>
        <mxCell id="nrHtv3V79Zr1azBo63br-15" value="推送代码" style="edgeLabel;html=1;align=center;verticalAlign=middle;resizable=0;points=[];" parent="nrHtv3V79Zr1azBo63br-14" vertex="1" connectable="0">
          <mxGeometry x="-0.4101" y="-3" relative="1" as="geometry">
            <mxPoint as="offset" />
          </mxGeometry>
        </mxCell>
        <mxCell id="nrHtv3V79Zr1azBo63br-18" value="" style="endArrow=classic;html=1;" parent="1" source="rVWC7oh4cJsDwkScO6lr-3" target="rVWC7oh4cJsDwkScO6lr-2" edge="1">
          <mxGeometry width="50" height="50" relative="1" as="geometry">
            <mxPoint x="150" y="210" as="sourcePoint" />
            <mxPoint x="220" y="140" as="targetPoint" />
          </mxGeometry>
        </mxCell>
        <mxCell id="nrHtv3V79Zr1azBo63br-19" value="部署公共分支服务器" style="edgeLabel;html=1;align=center;verticalAlign=middle;resizable=0;points=[];" parent="nrHtv3V79Zr1azBo63br-18" vertex="1" connectable="0">
          <mxGeometry x="-0.1634" y="-1" relative="1" as="geometry">
            <mxPoint as="offset" />
          </mxGeometry>
        </mxCell>
        <mxCell id="rVWC7oh4cJsDwkScO6lr-1" value="开发环境" style="points=[];aspect=fixed;html=1;align=center;shadow=0;dashed=0;image;image=img/lib/allied_telesis/computer_and_terminals/Personal_Computer_with_Server.svg;" parent="1" vertex="1">
          <mxGeometry x="130" y="657.6" width="62.400000000000006" height="62.400000000000006" as="geometry" />
        </mxCell>
        <mxCell id="rVWC7oh4cJsDwkScO6lr-2" value="&lt;div&gt;119.28.42.38&lt;/div&gt;&lt;div&gt;香港腾讯云服务器&lt;br&gt;&lt;/div&gt;" style="points=[];aspect=fixed;html=1;align=center;shadow=0;dashed=0;image;image=img/lib/allied_telesis/computer_and_terminals/Server_Desktop.svg;" parent="1" vertex="1">
          <mxGeometry x="139.9" y="-50" width="42.599999999999994" height="54" as="geometry" />
        </mxCell>
        <mxCell id="rVWC7oh4cJsDwkScO6lr-3" value="&lt;div&gt;47.115.14.222&lt;/div&gt;&lt;div&gt;阿里云服务器&lt;br&gt;&lt;/div&gt;" style="points=[];aspect=fixed;html=1;align=center;shadow=0;dashed=0;image;image=img/lib/allied_telesis/computer_and_terminals/Server_Desktop.svg;" parent="1" vertex="1">
          <mxGeometry x="139.9" y="310" width="42.599999999999994" height="54" as="geometry" />
        </mxCell>
        <mxCell id="rVWC7oh4cJsDwkScO6lr-4" value="&lt;div&gt;219.130.115.246&lt;/div&gt;&lt;div&gt;内部服务器&lt;br&gt;&lt;/div&gt;" style="points=[];aspect=fixed;html=1;align=center;shadow=0;dashed=0;image;image=img/lib/allied_telesis/computer_and_terminals/Server_Desktop.svg;" parent="1" vertex="1">
          <mxGeometry x="-210" y="310" width="42.599999999999994" height="54" as="geometry" />
        </mxCell>
        <mxCell id="rVWC7oh4cJsDwkScO6lr-8" value="运行服务" style="points=[[0,0],[0.25,0],[0.5,0],[0.75,0],[1,0],[1,0.25],[1,0.5],[1,0.75],[1,1],[0.75,1],[0.5,1],[0.25,1],[0,1],[0,0.75],[0,0.5],[0,0.25]];outlineConnect=0;gradientColor=none;html=1;whiteSpace=wrap;fontSize=12;fontStyle=0;shape=mxgraph.aws4.group;grIcon=mxgraph.aws4.group_on_premise;fillColor=none;verticalAlign=top;align=left;spacingLeft=30;fontColor=#5A6C86;dashed=0;strokeColor=#CDA2BE;" parent="1" vertex="1">
          <mxGeometry x="240" y="290" width="270" height="240" as="geometry" />
        </mxCell>
        <mxCell id="rVWC7oh4cJsDwkScO6lr-11" value="gitlab.procurementcentre.cn" style="text;html=1;strokeColor=#b46504;fillColor=#fad7ac;align=center;verticalAlign=middle;whiteSpace=wrap;rounded=0;" parent="1" vertex="1">
          <mxGeometry x="260" y="327" width="230" height="20" as="geometry" />
        </mxCell>
        <mxCell id="rVWC7oh4cJsDwkScO6lr-14" value="redmine.procurementcentre.cn" style="text;html=1;strokeColor=#ae4132;fillColor=#fad9d5;align=center;verticalAlign=middle;whiteSpace=wrap;rounded=0;" parent="1" vertex="1">
          <mxGeometry x="260" y="380" width="230" height="20" as="geometry" />
        </mxCell>
        <mxCell id="rVWC7oh4cJsDwkScO6lr-16" value="sonar.procurementcentre.cn" style="text;html=1;strokeColor=#10739e;fillColor=#b1ddf0;align=center;verticalAlign=middle;whiteSpace=wrap;rounded=0;" parent="1" vertex="1">
          <mxGeometry x="260" y="430" width="230" height="20" as="geometry" />
        </mxCell>
        <mxCell id="rVWC7oh4cJsDwkScO6lr-17" value="harbor.procurementcentre.cn" style="text;html=1;strokeColor=#23445d;fillColor=#bac8d3;align=center;verticalAlign=middle;whiteSpace=wrap;rounded=0;" parent="1" vertex="1">
          <mxGeometry x="260" y="480" width="230" height="20" as="geometry" />
        </mxCell>
        <mxCell id="nrHtv3V79Zr1azBo63br-16" value="" style="endArrow=classic;html=1;exitX=0.002;exitY=0.574;exitDx=0;exitDy=0;exitPerimeter=0;entryX=0.939;entryY=0.574;entryDx=0;entryDy=0;entryPerimeter=0;" parent="1" source="rVWC7oh4cJsDwkScO6lr-3" target="rVWC7oh4cJsDwkScO6lr-4" edge="1">
          <mxGeometry width="50" height="50" relative="1" as="geometry">
            <mxPoint x="-40" y="350" as="sourcePoint" />
            <mxPoint x="10" y="300" as="targetPoint" />
          </mxGeometry>
        </mxCell>
        <mxCell id="nrHtv3V79Zr1azBo63br-17" value="部署个人分支服务器" style="edgeLabel;html=1;align=center;verticalAlign=middle;resizable=0;points=[];" parent="nrHtv3V79Zr1azBo63br-16" vertex="1" connectable="0">
          <mxGeometry x="0.0709" y="4" relative="1" as="geometry">
            <mxPoint as="offset" />
          </mxGeometry>
        </mxCell>
        <mxCell id="nrHtv3V79Zr1azBo63br-22" value="odoo.procurementcentre.cn" style="text;html=1;strokeColor=#9673a6;fillColor=#e1d5e7;align=center;verticalAlign=middle;whiteSpace=wrap;rounded=0;" parent="1" vertex="1">
          <mxGeometry x="260" y="-60" width="230" height="20" as="geometry" />
        </mxCell>
        <mxCell id="nrHtv3V79Zr1azBo63br-23" value="hotfix.procurementcentre.cn" style="text;html=1;strokeColor=#9673a6;fillColor=#e1d5e7;align=center;verticalAlign=middle;whiteSpace=wrap;rounded=0;" parent="1" vertex="1">
          <mxGeometry x="260" y="-10" width="230" height="20" as="geometry" />
        </mxCell>
        <mxCell id="nrHtv3V79Zr1azBo63br-25" value="jenkins.procurementcentre.cn" style="text;html=1;strokeColor=#6c8ebf;fillColor=#dae8fc;align=center;verticalAlign=middle;whiteSpace=wrap;rounded=0;" parent="1" vertex="1">
          <mxGeometry x="260" y="40" width="230" height="20" as="geometry" />
        </mxCell>
        <mxCell id="nrHtv3V79Zr1azBo63br-27" value="个人分支测试服务" style="text;html=1;strokeColor=#9673a6;fillColor=#e1d5e7;align=center;verticalAlign=middle;whiteSpace=wrap;rounded=0;" parent="1" vertex="1">
          <mxGeometry x="-560" y="327" width="230" height="20" as="geometry" />
        </mxCell>
        <mxCell id="nrHtv3V79Zr1azBo63br-28" value="Gitlab Runner服务" style="text;html=1;strokeColor=#b46504;fillColor=#fad7ac;align=center;verticalAlign=middle;whiteSpace=wrap;rounded=0;" parent="1" vertex="1">
          <mxGeometry x="-560" y="370" width="230" height="20" as="geometry" />
        </mxCell>
        <mxCell id="nrHtv3V79Zr1azBo63br-29" value="个人远程开发服务" style="text;html=1;strokeColor=#9673a6;fillColor=#e1d5e7;align=center;verticalAlign=middle;whiteSpace=wrap;rounded=0;" parent="1" vertex="1">
          <mxGeometry x="-560" y="280" width="230" height="20" as="geometry" />
        </mxCell>
        <mxCell id="nrHtv3V79Zr1azBo63br-31" value="Redmine 消息提醒服务" style="text;html=1;strokeColor=#b85450;fillColor=#f8cecc;align=center;verticalAlign=middle;whiteSpace=wrap;rounded=0;" parent="1" vertex="1">
          <mxGeometry x="-560" y="415" width="230" height="20" as="geometry" />
        </mxCell>
        <mxCell id="nrHtv3V79Zr1azBo63br-79" value="" style="endArrow=none;dashed=1;html=1;dashPattern=1 3;strokeWidth=2;" parent="1" target="rVWC7oh4cJsDwkScO6lr-4" edge="1">
          <mxGeometry width="50" height="50" relative="1" as="geometry">
            <mxPoint x="-300" y="290" as="sourcePoint" />
            <mxPoint x="-250" y="240" as="targetPoint" />
          </mxGeometry>
        </mxCell>
        <mxCell id="nrHtv3V79Zr1azBo63br-80" value="" style="endArrow=none;dashed=1;html=1;dashPattern=1 3;strokeWidth=2;" parent="1" target="rVWC7oh4cJsDwkScO6lr-8" edge="1">
          <mxGeometry width="50" height="50" relative="1" as="geometry">
            <mxPoint x="180" y="320" as="sourcePoint" />
            <mxPoint x="230" y="270" as="targetPoint" />
          </mxGeometry>
        </mxCell>
        <mxCell id="nrHtv3V79Zr1azBo63br-81" value="" style="endArrow=none;dashed=1;html=1;dashPattern=1 3;strokeWidth=2;entryX=0;entryY=0.25;entryDx=0;entryDy=0;" parent="1" source="rVWC7oh4cJsDwkScO6lr-2" target="nrHtv3V79Zr1azBo63br-26" edge="1">
          <mxGeometry width="50" height="50" relative="1" as="geometry">
            <mxPoint x="160" y="-40" as="sourcePoint" />
            <mxPoint x="210" y="-90" as="targetPoint" />
          </mxGeometry>
        </mxCell>
      </root>
    </mxGraphModel>
  </diagram>
  <diagram id="sWi4bpTfqpIu5QMgyxX5" name="Page-2">
    <mxGraphModel dx="1422" dy="791" grid="1" gridSize="10" guides="1" tooltips="1" connect="1" arrows="1" fold="1" page="1" pageScale="1" pageWidth="827" pageHeight="1169" math="0" shadow="0">
      <root>
        <mxCell id="lVhwui7Ge4v-zUjsa0mH-0" />
        <mxCell id="lVhwui7Ge4v-zUjsa0mH-1" parent="lVhwui7Ge4v-zUjsa0mH-0" />
        <mxCell id="lVhwui7Ge4v-zUjsa0mH-2" value="Gitlab" style="swimlane;fillColor=#ffe6cc;strokeColor=#d79b00;" parent="lVhwui7Ge4v-zUjsa0mH-1" vertex="1">
          <mxGeometry x="600" width="680" height="870" as="geometry" />
        </mxCell>
        <mxCell id="lVhwui7Ge4v-zUjsa0mH-3" style="edgeStyle=orthogonalEdgeStyle;rounded=0;orthogonalLoop=1;jettySize=auto;html=1;exitX=0.5;exitY=1;exitDx=0;exitDy=0;entryX=0.5;entryY=0;entryDx=0;entryDy=0;" parent="lVhwui7Ge4v-zUjsa0mH-1" source="lVhwui7Ge4v-zUjsa0mH-5" target="lVhwui7Ge4v-zUjsa0mH-9" edge="1">
          <mxGeometry relative="1" as="geometry" />
        </mxCell>
        <mxCell id="lVhwui7Ge4v-zUjsa0mH-4" style="edgeStyle=orthogonalEdgeStyle;rounded=0;orthogonalLoop=1;jettySize=auto;html=1;exitX=0.5;exitY=1;exitDx=0;exitDy=0;entryX=0.5;entryY=0;entryDx=0;entryDy=0;" parent="lVhwui7Ge4v-zUjsa0mH-1" source="lVhwui7Ge4v-zUjsa0mH-5" target="lVhwui7Ge4v-zUjsa0mH-13" edge="1">
          <mxGeometry relative="1" as="geometry" />
        </mxCell>
        <mxCell id="lVhwui7Ge4v-zUjsa0mH-5" value="提交代码到Gilab" style="rounded=1;whiteSpace=wrap;html=1;" parent="lVhwui7Ge4v-zUjsa0mH-1" vertex="1">
          <mxGeometry x="885" y="92" width="90" height="43" as="geometry" />
        </mxCell>
        <mxCell id="lVhwui7Ge4v-zUjsa0mH-6" style="edgeStyle=orthogonalEdgeStyle;rounded=0;orthogonalLoop=1;jettySize=auto;html=1;exitX=0.5;exitY=1;exitDx=0;exitDy=0;exitPerimeter=0;entryX=0.5;entryY=0;entryDx=0;entryDy=0;" parent="lVhwui7Ge4v-zUjsa0mH-1" source="lVhwui7Ge4v-zUjsa0mH-7" target="lVhwui7Ge4v-zUjsa0mH-5" edge="1">
          <mxGeometry relative="1" as="geometry" />
        </mxCell>
        <mxCell id="lVhwui7Ge4v-zUjsa0mH-7" value="" style="strokeWidth=2;html=1;shape=mxgraph.flowchart.start_2;whiteSpace=wrap;" parent="lVhwui7Ge4v-zUjsa0mH-1" vertex="1">
          <mxGeometry x="920" y="40" width="20" height="20" as="geometry" />
        </mxCell>
        <mxCell id="lVhwui7Ge4v-zUjsa0mH-8" style="edgeStyle=orthogonalEdgeStyle;rounded=0;orthogonalLoop=1;jettySize=auto;html=1;exitX=0.5;exitY=1;exitDx=0;exitDy=0;entryX=0.5;entryY=0;entryDx=0;entryDy=0;" parent="lVhwui7Ge4v-zUjsa0mH-1" source="lVhwui7Ge4v-zUjsa0mH-9" target="lVhwui7Ge4v-zUjsa0mH-22" edge="1">
          <mxGeometry relative="1" as="geometry" />
        </mxCell>
        <mxCell id="lVhwui7Ge4v-zUjsa0mH-9" value="&lt;div&gt;Sonar&lt;/div&gt;&lt;div&gt;扫描代码&lt;br&gt;&lt;/div&gt;" style="rounded=1;whiteSpace=wrap;html=1;" parent="lVhwui7Ge4v-zUjsa0mH-1" vertex="1">
          <mxGeometry x="790" y="190" width="90" height="43" as="geometry" />
        </mxCell>
        <mxCell id="lVhwui7Ge4v-zUjsa0mH-10" style="edgeStyle=orthogonalEdgeStyle;rounded=0;orthogonalLoop=1;jettySize=auto;html=1;exitX=0.5;exitY=1;exitDx=0;exitDy=0;entryX=1;entryY=0.5;entryDx=0;entryDy=0;" parent="lVhwui7Ge4v-zUjsa0mH-1" source="lVhwui7Ge4v-zUjsa0mH-11" target="lVhwui7Ge4v-zUjsa0mH-30" edge="1">
          <mxGeometry relative="1" as="geometry" />
        </mxCell>
        <mxCell id="lVhwui7Ge4v-zUjsa0mH-11" value="&lt;div&gt;关联到&lt;/div&gt;&lt;div&gt;Redmine问题&lt;/div&gt;" style="rounded=1;whiteSpace=wrap;html=1;" parent="lVhwui7Ge4v-zUjsa0mH-1" vertex="1">
          <mxGeometry x="1030" y="268.5" width="90" height="43" as="geometry" />
        </mxCell>
        <mxCell id="lVhwui7Ge4v-zUjsa0mH-12" style="edgeStyle=orthogonalEdgeStyle;rounded=0;orthogonalLoop=1;jettySize=auto;html=1;exitX=0.5;exitY=1;exitDx=0;exitDy=0;entryX=0.5;entryY=0;entryDx=0;entryDy=0;" parent="lVhwui7Ge4v-zUjsa0mH-1" source="lVhwui7Ge4v-zUjsa0mH-13" target="lVhwui7Ge4v-zUjsa0mH-11" edge="1">
          <mxGeometry relative="1" as="geometry" />
        </mxCell>
        <mxCell id="lVhwui7Ge4v-zUjsa0mH-13" value="问题编号" style="rhombus;whiteSpace=wrap;html=1;" parent="lVhwui7Ge4v-zUjsa0mH-1" vertex="1">
          <mxGeometry x="1038.75" y="190" width="72.5" height="50" as="geometry" />
        </mxCell>
        <mxCell id="lVhwui7Ge4v-zUjsa0mH-14" style="edgeStyle=orthogonalEdgeStyle;rounded=0;orthogonalLoop=1;jettySize=auto;html=1;exitX=0.5;exitY=1;exitDx=0;exitDy=0;entryX=0.5;entryY=0;entryDx=0;entryDy=0;" parent="lVhwui7Ge4v-zUjsa0mH-1" source="lVhwui7Ge4v-zUjsa0mH-15" target="lVhwui7Ge4v-zUjsa0mH-17" edge="1">
          <mxGeometry relative="1" as="geometry" />
        </mxCell>
        <mxCell id="lVhwui7Ge4v-zUjsa0mH-15" value="构建镜像" style="rounded=1;whiteSpace=wrap;html=1;" parent="lVhwui7Ge4v-zUjsa0mH-1" vertex="1">
          <mxGeometry x="790" y="341.5" width="90" height="43" as="geometry" />
        </mxCell>
        <mxCell id="lVhwui7Ge4v-zUjsa0mH-16" style="edgeStyle=orthogonalEdgeStyle;rounded=0;orthogonalLoop=1;jettySize=auto;html=1;exitX=0.5;exitY=1;exitDx=0;exitDy=0;" parent="lVhwui7Ge4v-zUjsa0mH-1" source="lVhwui7Ge4v-zUjsa0mH-17" target="lVhwui7Ge4v-zUjsa0mH-19" edge="1">
          <mxGeometry relative="1" as="geometry" />
        </mxCell>
        <mxCell id="lVhwui7Ge4v-zUjsa0mH-17" value="安装测试" style="rounded=1;whiteSpace=wrap;html=1;" parent="lVhwui7Ge4v-zUjsa0mH-1" vertex="1">
          <mxGeometry x="790" y="420" width="90" height="43" as="geometry" />
        </mxCell>
        <mxCell id="lVhwui7Ge4v-zUjsa0mH-18" style="edgeStyle=orthogonalEdgeStyle;rounded=0;orthogonalLoop=1;jettySize=auto;html=1;exitX=0.5;exitY=1;exitDx=0;exitDy=0;entryX=0.5;entryY=0;entryDx=0;entryDy=0;" parent="lVhwui7Ge4v-zUjsa0mH-1" source="lVhwui7Ge4v-zUjsa0mH-19" target="lVhwui7Ge4v-zUjsa0mH-25" edge="1">
          <mxGeometry relative="1" as="geometry" />
        </mxCell>
        <mxCell id="lVhwui7Ge4v-zUjsa0mH-19" value="上传镜像到&lt;br&gt;Harbor" style="rounded=1;whiteSpace=wrap;html=1;" parent="lVhwui7Ge4v-zUjsa0mH-1" vertex="1">
          <mxGeometry x="790" y="500" width="90" height="43" as="geometry" />
        </mxCell>
        <mxCell id="lVhwui7Ge4v-zUjsa0mH-20" style="edgeStyle=orthogonalEdgeStyle;rounded=0;orthogonalLoop=1;jettySize=auto;html=1;exitX=0;exitY=0.5;exitDx=0;exitDy=0;entryX=0;entryY=0.5;entryDx=0;entryDy=0;" parent="lVhwui7Ge4v-zUjsa0mH-1" source="lVhwui7Ge4v-zUjsa0mH-22" target="lVhwui7Ge4v-zUjsa0mH-30" edge="1">
          <mxGeometry relative="1" as="geometry">
            <Array as="points">
              <mxPoint x="740" y="288" />
              <mxPoint x="740" y="825" />
            </Array>
          </mxGeometry>
        </mxCell>
        <mxCell id="lVhwui7Ge4v-zUjsa0mH-21" style="edgeStyle=orthogonalEdgeStyle;rounded=0;orthogonalLoop=1;jettySize=auto;html=1;exitX=0.5;exitY=1;exitDx=0;exitDy=0;entryX=0.5;entryY=0;entryDx=0;entryDy=0;" parent="lVhwui7Ge4v-zUjsa0mH-1" source="lVhwui7Ge4v-zUjsa0mH-22" target="lVhwui7Ge4v-zUjsa0mH-15" edge="1">
          <mxGeometry relative="1" as="geometry" />
        </mxCell>
        <mxCell id="lVhwui7Ge4v-zUjsa0mH-22" value="跳过构建" style="rhombus;whiteSpace=wrap;html=1;" parent="lVhwui7Ge4v-zUjsa0mH-1" vertex="1">
          <mxGeometry x="798.75" y="263" width="72.5" height="50" as="geometry" />
        </mxCell>
        <mxCell id="lVhwui7Ge4v-zUjsa0mH-23" style="edgeStyle=orthogonalEdgeStyle;rounded=0;orthogonalLoop=1;jettySize=auto;html=1;exitX=0.5;exitY=1;exitDx=0;exitDy=0;entryX=0.5;entryY=0;entryDx=0;entryDy=0;" parent="lVhwui7Ge4v-zUjsa0mH-1" source="lVhwui7Ge4v-zUjsa0mH-25" target="lVhwui7Ge4v-zUjsa0mH-27" edge="1">
          <mxGeometry relative="1" as="geometry" />
        </mxCell>
        <mxCell id="lVhwui7Ge4v-zUjsa0mH-24" style="edgeStyle=orthogonalEdgeStyle;rounded=0;orthogonalLoop=1;jettySize=auto;html=1;exitX=1;exitY=0.5;exitDx=0;exitDy=0;entryX=0.5;entryY=0;entryDx=0;entryDy=0;" parent="lVhwui7Ge4v-zUjsa0mH-1" source="lVhwui7Ge4v-zUjsa0mH-25" target="lVhwui7Ge4v-zUjsa0mH-29" edge="1">
          <mxGeometry relative="1" as="geometry" />
        </mxCell>
        <mxCell id="lVhwui7Ge4v-zUjsa0mH-25" value="公共分支" style="rhombus;whiteSpace=wrap;html=1;" parent="lVhwui7Ge4v-zUjsa0mH-1" vertex="1">
          <mxGeometry x="798.75" y="580" width="72.5" height="50" as="geometry" />
        </mxCell>
        <mxCell id="lVhwui7Ge4v-zUjsa0mH-26" style="edgeStyle=orthogonalEdgeStyle;rounded=0;orthogonalLoop=1;jettySize=auto;html=1;exitX=0.5;exitY=1;exitDx=0;exitDy=0;entryX=0.5;entryY=0;entryDx=0;entryDy=0;" parent="lVhwui7Ge4v-zUjsa0mH-1" source="lVhwui7Ge4v-zUjsa0mH-27" target="lVhwui7Ge4v-zUjsa0mH-30" edge="1">
          <mxGeometry relative="1" as="geometry" />
        </mxCell>
        <mxCell id="lVhwui7Ge4v-zUjsa0mH-27" value="部署Odoo&lt;br&gt;香港腾讯云" style="rounded=1;whiteSpace=wrap;html=1;" parent="lVhwui7Ge4v-zUjsa0mH-1" vertex="1">
          <mxGeometry x="790" y="677" width="90" height="43" as="geometry" />
        </mxCell>
        <mxCell id="lVhwui7Ge4v-zUjsa0mH-28" style="edgeStyle=orthogonalEdgeStyle;rounded=0;orthogonalLoop=1;jettySize=auto;html=1;exitX=0.5;exitY=1;exitDx=0;exitDy=0;entryX=0.5;entryY=0;entryDx=0;entryDy=0;" parent="lVhwui7Ge4v-zUjsa0mH-1" source="lVhwui7Ge4v-zUjsa0mH-29" target="lVhwui7Ge4v-zUjsa0mH-30" edge="1">
          <mxGeometry relative="1" as="geometry" />
        </mxCell>
        <mxCell id="lVhwui7Ge4v-zUjsa0mH-29" value="部署Odoo&lt;br&gt;内部服务器" style="rounded=1;whiteSpace=wrap;html=1;" parent="lVhwui7Ge4v-zUjsa0mH-1" vertex="1">
          <mxGeometry x="940" y="677" width="90" height="43" as="geometry" />
        </mxCell>
        <mxCell id="lVhwui7Ge4v-zUjsa0mH-30" value="" style="ellipse;html=1;shape=endState;fillColor=#000000;strokeColor=#ff0000;" parent="lVhwui7Ge4v-zUjsa0mH-1" vertex="1">
          <mxGeometry x="915" y="810" width="30" height="30" as="geometry" />
        </mxCell>
      </root>
    </mxGraphModel>
  </diagram>
  <diagram id="4GkeoSNyv0drX1vBQMuy" name="Page-3">
    <mxGraphModel dx="1422" dy="791" grid="1" gridSize="10" guides="1" tooltips="1" connect="1" arrows="1" fold="1" page="1" pageScale="1" pageWidth="827" pageHeight="1169" math="0" shadow="0">
      <root>
        <mxCell id="ofIgxVYYzololJrlE06j-0" />
        <mxCell id="ofIgxVYYzololJrlE06j-1" parent="ofIgxVYYzololJrlE06j-0" />
        <mxCell id="ofIgxVYYzololJrlE06j-2" value="Jenkins" style="swimlane;fillColor=#ffe6cc;strokeColor=#d79b00;" vertex="1" parent="ofIgxVYYzololJrlE06j-1">
          <mxGeometry x="2060" y="30" width="420" height="750" as="geometry" />
        </mxCell>
        <mxCell id="ofIgxVYYzololJrlE06j-15" value="" style="ellipse;html=1;shape=endState;fillColor=#000000;strokeColor=#ff0000;" vertex="1" parent="ofIgxVYYzololJrlE06j-2">
          <mxGeometry x="195" y="510" width="30" height="30" as="geometry" />
        </mxCell>
        <mxCell id="ofIgxVYYzololJrlE06j-16" value="公共项目" style="rounded=1;whiteSpace=wrap;html=1;" vertex="1" parent="ofIgxVYYzololJrlE06j-2">
          <mxGeometry x="300" y="110" width="90" height="43" as="geometry" />
        </mxCell>
        <mxCell id="ofIgxVYYzololJrlE06j-4" value="" style="strokeWidth=2;html=1;shape=mxgraph.flowchart.start_2;whiteSpace=wrap;" vertex="1" parent="ofIgxVYYzololJrlE06j-1">
          <mxGeometry x="905" y="190" width="20" height="20" as="geometry" />
        </mxCell>
        <mxCell id="ofIgxVYYzololJrlE06j-6" value="获取构建参数" style="rounded=1;whiteSpace=wrap;html=1;" vertex="1" parent="ofIgxVYYzololJrlE06j-1">
          <mxGeometry x="870" y="260" width="90" height="43" as="geometry" />
        </mxCell>
        <mxCell id="ofIgxVYYzololJrlE06j-17" value="Harbor" style="rounded=1;whiteSpace=wrap;html=1;" vertex="1" parent="ofIgxVYYzololJrlE06j-1">
          <mxGeometry x="1080" y="260" width="90" height="43" as="geometry" />
        </mxCell>
        <mxCell id="ofIgxVYYzololJrlE06j-19" value="" style="endArrow=classic;html=1;exitX=0;exitY=0.5;exitDx=0;exitDy=0;dashed=1;" edge="1" parent="ofIgxVYYzololJrlE06j-1" source="ofIgxVYYzololJrlE06j-17">
          <mxGeometry width="50" height="50" relative="1" as="geometry">
            <mxPoint x="770" y="230" as="sourcePoint" />
            <mxPoint x="960" y="282" as="targetPoint" />
          </mxGeometry>
        </mxCell>
        <mxCell id="ofIgxVYYzololJrlE06j-21" value="&lt;div&gt;重置远程&lt;/div&gt;&lt;div&gt;开发环境&lt;/div&gt;" style="rounded=1;whiteSpace=wrap;html=1;" vertex="1" parent="ofIgxVYYzololJrlE06j-1">
          <mxGeometry x="700" y="580" width="90" height="43" as="geometry" />
        </mxCell>
        <mxCell id="ofIgxVYYzololJrlE06j-22" value="回滚服务器版本" style="rounded=1;whiteSpace=wrap;html=1;" vertex="1" parent="ofIgxVYYzololJrlE06j-1">
          <mxGeometry x="870" y="580" width="90" height="43" as="geometry" />
        </mxCell>
        <mxCell id="ofIgxVYYzololJrlE06j-23" value="&lt;div&gt;重置个人&lt;/div&gt;&lt;div&gt;测试服务器版本&lt;/div&gt;" style="rounded=1;whiteSpace=wrap;html=1;" vertex="1" parent="ofIgxVYYzololJrlE06j-1">
          <mxGeometry x="800" y="700" width="90" height="43" as="geometry" />
        </mxCell>
        <mxCell id="ofIgxVYYzololJrlE06j-24" value="选择构建参数" style="rounded=1;whiteSpace=wrap;html=1;" vertex="1" parent="ofIgxVYYzololJrlE06j-1">
          <mxGeometry x="870" y="360" width="90" height="43" as="geometry" />
        </mxCell>
        <mxCell id="ofIgxVYYzololJrlE06j-26" style="edgeStyle=orthogonalEdgeStyle;rounded=0;orthogonalLoop=1;jettySize=auto;html=1;exitX=0;exitY=0.5;exitDx=0;exitDy=0;" edge="1" parent="ofIgxVYYzololJrlE06j-1" source="ofIgxVYYzololJrlE06j-25" target="ofIgxVYYzololJrlE06j-21">
          <mxGeometry relative="1" as="geometry" />
        </mxCell>
        <mxCell id="ofIgxVYYzololJrlE06j-27" style="edgeStyle=orthogonalEdgeStyle;rounded=0;orthogonalLoop=1;jettySize=auto;html=1;exitX=0.5;exitY=1;exitDx=0;exitDy=0;" edge="1" parent="ofIgxVYYzololJrlE06j-1" source="ofIgxVYYzololJrlE06j-25" target="ofIgxVYYzololJrlE06j-22">
          <mxGeometry relative="1" as="geometry" />
        </mxCell>
        <mxCell id="ofIgxVYYzololJrlE06j-25" value="odoo:12e-dev" style="rhombus;whiteSpace=wrap;html=1;" vertex="1" parent="ofIgxVYYzololJrlE06j-1">
          <mxGeometry x="875" y="450" width="80" height="60" as="geometry" />
        </mxCell>
        <mxCell id="ofIgxVYYzololJrlE06j-29" value="&lt;div&gt;重置公共&lt;/div&gt;&lt;div&gt;服务器版本&lt;/div&gt;" style="rounded=1;whiteSpace=wrap;html=1;" vertex="1" parent="ofIgxVYYzololJrlE06j-1">
          <mxGeometry x="950" y="700" width="90" height="43" as="geometry" />
        </mxCell>
      </root>
    </mxGraphModel>
  </diagram>
</mxfile>
